<svg xmlns="http://www.w3.org/2000/svg"><symbol id="sprite-icon_arrow-down" viewBox="0 0 22 22"><title>icon_arrow-down</title><path d="M17.417 5.333H4.584L11 15.416l6.417-10.083z" fill="#6C6C6C"/></symbol><symbol id="sprite-icon_arrow-up" viewBox="0 0 22 22"><title>icon_arrow-up</title><path d="M4.583 15.667h12.833L11 5.584 4.583 15.667z"/></symbol><symbol id="sprite-icon_basket" viewBox="0 0 16 18"><title>icon_basket</title><path d="M14.38 6.593a.518.518 0 00-.171-.152.436.436 0 00-.21-.055h-3V4.023c0-.47-.157-.921-.439-1.254-.28-.332-.662-.519-1.06-.519h-3c-.398 0-.78.187-1.06.52-.282.332-.44.783-.44 1.253v2.363H2a.435.435 0 00-.21.052.516.516 0 00-.173.151.63.63 0 00-.103.223.695.695 0 00-.014.254l.94 7.18c.036.281.157.538.34.723a.912.912 0 00.66.28h9.13a.913.913 0 00.659-.28c.184-.185.305-.442.34-.724l.93-7.18a.695.695 0 00-.015-.251.627.627 0 00-.104-.22zM6 4.023a.65.65 0 01.146-.418.465.465 0 01.354-.173h3c.132 0 .26.062.353.173a.65.65 0 01.147.418v2.363H6V4.023zm6.57 10.045H3.43l-.845-6.5h10.83l-.845 6.5z"/></symbol><symbol id="sprite-icon_cart" viewBox="0 0 12 13"><title>icon_cart</title><path d="M3 5h6.969l.25-1H4V3h6.86a.5.5 0 01.485.622l-1.25 5A.5.5 0 019.61 9H2.5a.5.5 0 01-.5-.5v-6H1v-1h1.5A.5.5 0 013 2v3zm0 7a1 1 0 110-2 1 1 0 010 2zm6 0a1 1 0 110-2 1 1 0 010 2z" fill="#fff"/></symbol><symbol fill="none" id="sprite-icon_check-mark-button" viewBox="0 0 14 14"><title>icon_check-mark-button</title><path d="M5.283 11.191l-3.9-3.877a.24.24 0 010-.342l.985-.985a.24.24 0 01.34 0l2.567 2.552a.242.242 0 00.341-.001L11.29 2.81a.242.242 0 01.342-.001l.985.985a.241.241 0 01.001.34l-6.18 6.236h.002l-.815.82a.242.242 0 01-.341 0z" fill="#585757"/></symbol><symbol fill="none" id="sprite-icon_clock" viewBox="0 0 10 10"><title>icon_clock</title><path d="M5 .625a4.375 4.375 0 100 8.75 4.375 4.375 0 000-8.75zm1.724 5.72l-.28.38a.078.078 0 01-.109.017L4.72 5.564a.077.077 0 01-.032-.063V2.812c0-.042.035-.078.078-.078h.47c.042 0 .077.036.077.079v2.416l1.393 1.007a.077.077 0 01.018.109z" fill="#fff"/></symbol><symbol id="sprite-icon_facebook" viewBox="0 0 24 24"><title>icon_facebook</title><path d="M12 0C5.373 0 0 5.405 0 12.072 0 18.097 4.388 23.091 10.125 24v-8.437H7.077v-3.49h3.048v-2.66c0-3.028 1.792-4.698 4.532-4.698 1.313 0 2.688.235 2.688.235v2.97h-1.517c-1.488 0-1.953.931-1.953 1.886v2.264H17.2l-.531 3.49h-2.794v8.438C19.612 23.093 24 18.098 24 12.072 24 5.405 18.627 0 12 0z"/></symbol><symbol id="sprite-icon_instagram" viewBox="0 0 24 24"><title>icon_instagram</title><path d="M12 24a11.75 11.75 0 01-4.664-.95c-1.484-.632-2.762-1.484-3.832-2.554-1.07-1.07-1.922-2.348-2.555-3.832A11.773 11.773 0 010 12c0-1.625.316-3.18.95-4.664.632-1.484 1.484-2.762 2.554-3.832 1.07-1.07 2.348-1.922 3.832-2.555A11.767 11.767 0 0112 0c1.625 0 3.18.316 4.664.95 1.484.632 2.762 1.484 3.832 2.554 1.07 1.07 1.922 2.348 2.555 3.832C23.684 8.82 24 10.375 24 12c0 1.625-.316 3.18-.95 4.664-.632 1.484-1.484 2.762-2.554 3.832-1.07 1.07-2.348 1.922-3.832 2.555A11.767 11.767 0 0112 24zm6-16.5a1.46 1.46 0 00-.434-1.055A1.43 1.43 0 0016.5 6h-9c-.406 0-.758.148-1.055.445A1.442 1.442 0 006 7.5V9h2.672C9.578 8 10.687 7.5 12 7.5c1.313 0 2.422.5 3.328 1.5H18V7.5zM9 12c0 .828.293 1.535.879 2.121A2.89 2.89 0 0012 15a2.89 2.89 0 002.121-.879A2.89 2.89 0 0015 12a2.89 2.89 0 00-.879-2.121A2.89 2.89 0 0012 9a2.89 2.89 0 00-2.121.879A2.89 2.89 0 009 12zm9-1.5h-1.781A4.38 4.38 0 0116.5 12c0 1.25-.438 2.313-1.313 3.188-.874.874-1.937 1.312-3.187 1.312-1.25 0-2.313-.438-3.188-1.313C7.939 14.313 7.5 13.25 7.5 12c0-.484.094-.984.281-1.5H6v6c0 .422.145.777.434 1.066.289.29.644.434 1.066.434h9a1.45 1.45 0 001.066-.434c.29-.289.434-.644.434-1.066v-6z"/></symbol><symbol fill="none" id="sprite-icon_location" viewBox="0 0 14 17"><title>icon_location</title><path d="M12.875 7.352c0 4.455-6 8.273-6 8.273s-6-3.818-6-8.273c0-1.519.632-2.975 1.757-4.05a6.148 6.148 0 014.243-1.677 6.15 6.15 0 014.243 1.677 5.598 5.598 0 011.757 4.05z"/><path d="M6.875 9.262c1.105 0 2-.855 2-1.91 0-1.054-.895-1.909-2-1.909s-2 .855-2 1.91c0 1.054.895 1.909 2 1.909z"/></symbol><symbol fill="none" id="sprite-icon_phone" viewBox="0 0 10 10"><title>icon_phone</title><path d="M8.536 7.142l-1.693-1.54a.417.417 0 00-.58.018l-.997 1.025c-.24-.046-.723-.196-1.22-.692-.496-.497-.646-.98-.69-1.219l1.024-.997a.417.417 0 00.018-.58l-1.54-1.693a.417.417 0 00-.58-.037l-.904.776a.417.417 0 00-.12.27c-.007.104-.126 2.572 1.787 4.486 1.67 1.669 3.76 1.79 4.336 1.79.084 0 .136-.002.15-.002a.413.413 0 00.27-.122l.775-.904a.415.415 0 00-.036-.58z" fill="#fff"/></symbol><symbol id="sprite-icon_search" viewBox="0 0 14 14"><title>icon_search</title><path fill-rule="evenodd" clip-rule="evenodd" d="M10.028 9.029l3.765 3.766a.706.706 0 01-.998.998l-3.766-3.766a5.6 5.6 0 11.998-.998zm-4.428.77a4.2 4.2 0 100-8.399 4.2 4.2 0 000 8.4z"/></symbol><symbol id="sprite-icon_twitter" viewBox="0 0 24 24"><title>icon_twitter</title><path d="M12 .48C5.639.48.48 5.638.48 12c0 6.363 5.158 11.52 11.52 11.52 6.363 0 11.52-5.157 11.52-11.52C23.52 5.639 18.363.48 12 .48zm4.686 9.437c.005.099.006.197.006.293 0 3-2.28 6.457-6.454 6.457a6.403 6.403 0 01-3.478-1.02c.176.022.358.03.541.03a4.544 4.544 0 002.818-.97 2.274 2.274 0 01-2.12-1.575c.34.065.69.051 1.024-.04a2.27 2.27 0 01-1.82-2.224v-.028c.306.17.656.273 1.028.284a2.268 2.268 0 01-.702-3.03 6.451 6.451 0 004.677 2.372 2.269 2.269 0 013.866-2.07c.508-.1.995-.287 1.44-.551a2.28 2.28 0 01-.997 1.256 4.56 4.56 0 001.303-.359 4.602 4.602 0 01-1.132 1.175z"/></symbol><symbol id="sprite-logo" viewBox="0 0 67 70"><title>logo</title><path d="M10.473 15.586H9.008V9.102h-1.7c-.69 0-1.288.058-1.796.175-.508.118-.931.32-1.27.606-.325.273-.566.65-.722 1.133-.157.481-.235 1.087-.235 1.816v18.281c0 .43.072.827.215 1.192.143.351.339.664.586.937.247.26.54.469.879.625.351.143.736.215 1.152.215.443 0 .84-.078 1.192-.234a2.78 2.78 0 00.898-.625c.26-.274.456-.586.586-.938.143-.364.215-.755.215-1.172v-8.945h-2.48v-1.309h3.945v10.274a4.14 4.14 0 01-.352 1.719 4.06 4.06 0 01-.918 1.347 4.13 4.13 0 01-1.387.88 4.48 4.48 0 01-1.68.312 4.503 4.503 0 01-1.738-.332 4.453 4.453 0 01-1.367-.899 4.214 4.214 0 01-.898-1.347 4.48 4.48 0 01-.313-1.68V13.477c0-.43.007-.873.02-1.329a8.25 8.25 0 01.176-1.308c.09-.417.24-.807.449-1.172.208-.378.495-.703.86-.977.377-.286.852-.507 1.425-.664.586-.156 1.302-.234 2.148-.234h3.575v7.793zm13.336-.469v16.328c0 .573-.072 1.1-.215 1.582a3.559 3.559 0 01-.645 1.25 2.924 2.924 0 01-1.074.82c-.417.196-.905.294-1.465.294s-1.055-.091-1.484-.274a2.877 2.877 0 01-1.055-.722 3.425 3.425 0 01-.625-1.133 4.673 4.673 0 01-.215-1.446V15.117h1.465v16.817c0 .599.163 1.106.488 1.523.339.417.82.625 1.446.625.612 0 1.08-.234 1.406-.703.338-.482.508-1.061.508-1.738V15.117h1.465zM30.64 35V15.117h1.465V35H30.64zm-.196-26.621c0-.651.313-.977.938-.977.3 0 .534.085.703.254.182.157.273.397.273.723a.916.916 0 01-.254.644c-.156.183-.397.274-.722.274-.3 0-.534-.091-.703-.274a.959.959 0 01-.235-.644zm8.903 8.047h-1.621v-1.309h1.62v-2.46h1.465v2.46h2.676v1.309h-2.675v15.508c0 .599.162 1.106.488 1.523.325.404.8.605 1.426.605h.644v1.329h-.644c-.56 0-1.055-.091-1.485-.274a3.09 3.09 0 01-1.054-.742 3.425 3.425 0 01-.626-1.133 4.606 4.606 0 01-.214-1.426v-15.39zm12.79 17.264c.625 0 1.1-.208 1.425-.625.339-.416.508-.924.508-1.523v-6.895h-1.933c-.612 0-1.087.202-1.426.606-.326.404-.488.911-.488 1.523v6.914h1.914zM48.757 35v-8.086c0-.52.072-.996.216-1.426a3.03 3.03 0 01.644-1.133 2.771 2.771 0 011.055-.742 3.72 3.72 0 011.465-.273h1.933v-5.176c0-.599-.169-1.1-.508-1.504-.325-.416-.8-.625-1.425-.625-.612 0-1.087.235-1.426.703-.326.469-.488 1.042-.488 1.719l-1.446.215c0-.56.072-1.08.215-1.563.143-.481.352-.898.625-1.25a2.964 2.964 0 011.055-.82c.43-.208.918-.312 1.465-.312.56 0 1.048.09 1.465.273a3.028 3.028 0 011.718 1.895 4.4 4.4 0 01.215 1.406v13.125c0 .52-.071 1.002-.215 1.445a3.25 3.25 0 01-.644 1.133 3.06 3.06 0 01-1.074.742c-.417.17-.905.254-1.465.254h-3.38zm17.438-18.691a2.757 2.757 0 00-.703-.079c-.625 0-1.107.209-1.445.625-.326.417-.488.925-.488 1.524V35h-1.465V18.496c0-.52.071-.996.215-1.426.143-.442.358-.82.644-1.133a2.773 2.773 0 011.055-.742c.43-.182.924-.273 1.484-.273.235 0 .462.02.684.058.221.027.423.072.605.137l-.586 1.192zM23.17 53.464c.287-.457.545-.923.774-1.397.228-.482.419-.952.571-1.409a6.274 6.274 0 01-.52-.876 2.29 2.29 0 01-.204-.94c0-.312.03-.596.09-.85a2.37 2.37 0 01.24-.647 1.28 1.28 0 01.343-.407.624.624 0 01.394-.152c.186 0 .334.093.444.28.119.186.17.423.152.71a7.71 7.71 0 01-.14 1.092 8.24 8.24 0 01-.304 1.194c.17.194.343.389.52.584.187.186.352.38.496.584.152.203.275.423.368.66.102.228.152.478.152.749 0 .372-.072.715-.215 1.028a3.227 3.227 0 01-.496.813 2.508 2.508 0 01-.609.533c-.212.127-.394.19-.546.19-.262 0-.465-.068-.61-.203a.619.619 0 01-.202-.444c0-.127.02-.254.063-.381.042-.127.089-.241.14-.343.059-.11.114-.199.165-.267.059-.067.101-.101.127-.101.042 0 .067.017.076.05a.138.138 0 01.025.077c0 .042-.004.101-.012.178-.009.076-.013.14-.013.19 0 .144.046.262.14.355.101.094.262.14.482.14a.958.958 0 00.317-.063 1.11 1.11 0 00.61-.546 1.07 1.07 0 00.114-.508c0-.178-.042-.364-.127-.559a3.85 3.85 0 00-.33-.596 8.908 8.908 0 00-.457-.622c-.16-.212-.322-.428-.482-.648-.195.483-.411.952-.648 1.41a11.04 11.04 0 01-.736 1.243l-.153-.101zm.964-5.281c0 .321.06.609.178.863.118.245.275.487.47.724a5.24 5.24 0 00.14-.75c.025-.245.037-.478.037-.698 0-.592-.13-.888-.393-.888-.076 0-.17.059-.28.177-.101.11-.152.3-.152.572zm6.498 4.887c0-.22.012-.575.038-1.066.025-.5.055-1.13.089-1.892a139.99 139.99 0 00.114-7.858 80.834 80.834 0 00-.038-2.603v-.457a.56.56 0 01.025-.177.365.365 0 01.14-.14c.05-.025.11-.06.177-.102a.41.41 0 01.23-.076c.092 0 .164.026.215.076.05.043.089.123.114.242.034.11.06.304.076.584.017.27.026.651.026 1.142.008.483.012 1.109.012 1.88 0 .71-.017 1.446-.05 2.208-.034.762-.077 1.51-.127 2.247a71.297 71.297 0 01-.153 2.12 99.5 99.5 0 01-.152 1.828c-.042.542-.08.995-.114 1.359a9.64 9.64 0 00-.051.685v.153c0 .059.004.118.013.177.008.051.02.098.038.14.017.034.042.05.076.05.085 0 .173-.135.267-.405.093-.271.211-.635.355-1.092.093-.288.199-.58.317-.876.119-.296.242-.563.369-.8.135-.245.27-.444.406-.597.144-.152.283-.228.419-.228.101 0 .186.03.254.089a.71.71 0 01.19.228c.05.085.089.178.114.28.026.101.047.198.064.291a37.947 37.947 0 01.089 1.155c.017.263.034.538.05.826.026.288.051.563.077.825.042.474.156.817.342 1.029a.92.92 0 00.724.317 1.2 1.2 0 00.28-.026.788.788 0 01.19-.025c.042 0 .05.042.025.127-.017.034-.089.093-.216.178-.127.076-.35.114-.673.114-.27 0-.499-.042-.685-.127a1.08 1.08 0 01-.432-.419 2.782 2.782 0 01-.241-.749 9.406 9.406 0 01-.102-1.117l-.05-.762a6.128 6.128 0 00-.064-.736 2.317 2.317 0 00-.114-.533c-.05-.144-.123-.216-.216-.216-.076 0-.16.089-.254.266a5.29 5.29 0 00-.28.61 17.31 17.31 0 00-.24.698l-.178.533c-.034.102-.085.271-.152.508a9.073 9.073 0 01-.242.724 4.207 4.207 0 01-.304.647c-.11.186-.224.28-.343.28-.102 0-.182-.056-.241-.166a1.736 1.736 0 01-.14-.419 5.168 5.168 0 01-.05-.507 9.724 9.724 0 01-.013-.445zm10.191 1.13c.204 0 .402-.042.597-.127a1.66 1.66 0 00.52-.393c.153-.178.272-.394.356-.648.093-.254.14-.55.14-.888 0-.28-.034-.542-.102-.788a1.976 1.976 0 00-.305-.66 1.363 1.363 0 00-.507-.444 1.497 1.497 0 00-.724-.165c-.195 0-.39.038-.584.114a1.3 1.3 0 00-.52.343 1.665 1.665 0 00-.369.597c-.093.237-.14.524-.14.863 0 .27.035.537.102.8.068.254.165.486.292.698.136.212.305.38.508.508.212.127.457.19.736.19zm-.444.648c-.558 0-1.015-.182-1.371-.546-.355-.373-.533-.91-.533-1.612 0-.474.089-.91.266-1.308a3.48 3.48 0 01.686-1.041 3.2 3.2 0 01.952-.686c.347-.16.686-.24 1.016-.24.533 0 .96.181 1.282.545.322.364.482.901.482 1.612 0 .474-.084.91-.253 1.308a3.412 3.412 0 01-.648 1.04 3.13 3.13 0 01-.889.686c-.33.161-.66.242-.99.242zm7.615-7.516c.042 0 .055.085.038.254-.009.16-.03.372-.064.635a86.5 86.5 0 01-.089.85c-.033.313-.05.618-.05.914 0 .601.004 1.164.012 1.689.017.525.038 1.037.064 1.536.28-.465.563-.889.85-1.27.297-.38.593-.706.89-.977.295-.27.592-.478.888-.622.296-.153.592-.229.889-.229.236 0 .435.068.596.203.161.127.241.356.241.686 0 .237-.05.478-.152.724a3.605 3.605 0 01-.393.723c-.161.237-.347.47-.56.699-.202.228-.41.444-.621.647-.508.474-1.08.935-1.714 1.384l-.127-.153c.5-.431.948-.854 1.346-1.27.169-.177.334-.359.495-.545.16-.195.304-.385.431-.571.127-.195.229-.377.305-.546a1.16 1.16 0 00.127-.495 1.07 1.07 0 00-.025-.203.525.525 0 00-.09-.242.538.538 0 00-.228-.203.705.705 0 00-.38-.089c-.195 0-.403.068-.623.204-.22.135-.448.33-.685.583a7.45 7.45 0 00-.711.914c-.237.356-.474.754-.711 1.194.034.61.072 1.197.114 1.764.042.568.08 1.13.114 1.689.043.567.072 1.143.09 1.726.025.584.037 1.198.037 1.841 0 1.49-.084 2.793-.254 3.91-.16 1.118-.372 2.049-.634 2.793-.254.754-.542 1.317-.863 1.689-.33.38-.656.571-.978.571-.186 0-.368-.076-.546-.228-.186-.153-.347-.377-.482-.673a4.268 4.268 0 01-.343-1.066 6.839 6.839 0 01-.14-1.46c0-.805.076-1.697.229-2.68a28.07 28.07 0 01.647-3.02c.271-1.025.593-2.049.965-3.073a30.81 30.81 0 011.206-2.856v-1.27c0-.999.038-1.875.114-2.628.085-.762.178-1.396.28-1.904.101-.516.198-.901.292-1.155.101-.263.169-.394.203-.394zm-.597 13.965c0-.745-.013-1.371-.038-1.879-.017-.5-.042-.956-.076-1.371a58.721 58.721 0 00-.09-1.219 46.35 46.35 0 01-.063-1.434 27.48 27.48 0 00-.9 2.336c-.28.837-.526 1.7-.737 2.59-.22.888-.39 1.785-.508 2.69a19.1 19.1 0 00-.19 2.654c0 .33.017.698.05 1.105.034.406.098.787.19 1.142.085.356.2.652.344.889.135.245.313.368.533.368.169 0 .326-.106.47-.317.143-.212.27-.504.38-.876a9.9 9.9 0 00.28-1.32c.084-.5.152-1.042.203-1.626.05-.584.089-1.193.114-1.828.025-.635.038-1.27.038-1.904zM1 38.8h66m-54 4h54m-14 4h14m-10 4h10"/></symbol><symbol fill="none" id="sprite-stars_active" viewBox="0 0 68 12"><title>stars_active</title><path d="M52.642 4.138l-2.976-.432-1.33-2.697a.377.377 0 00-.673 0l-1.33 2.697-2.975.432a.374.374 0 00-.207.64l2.152 2.099-.508 2.964a.374.374 0 00.543.395L48 8.836l2.661 1.4a.374.374 0 00.544-.395l-.509-2.964 2.153-2.099a.375.375 0 00-.207-.64zm-14 0l-2.976-.432-1.33-2.697a.377.377 0 00-.673 0l-1.33 2.697-2.975.432a.374.374 0 00-.207.64l2.152 2.099-.508 2.964a.374.374 0 00.543.395L34 8.836l2.661 1.4a.374.374 0 00.544-.395l-.509-2.964 2.153-2.099a.375.375 0 00-.207-.64zm-14 0l-2.976-.432-1.33-2.697a.377.377 0 00-.673 0l-1.33 2.697-2.975.432a.374.374 0 00-.208.64l2.153 2.099-.508 2.964a.374.374 0 00.543.395L20 8.836l2.661 1.4a.374.374 0 00.544-.395l-.509-2.964 2.153-2.099a.375.375 0 00-.207-.64zm-14 0l-2.976-.432-1.33-2.697a.377.377 0 00-.673 0l-1.33 2.697-2.975.432a.374.374 0 00-.207.64l2.152 2.099-.508 2.964a.374.374 0 00.543.395L6 8.836l2.661 1.4a.375.375 0 00.544-.395l-.509-2.964 2.153-2.099a.375.375 0 00-.207-.64zm55.999 0l-2.975-.432-1.33-2.697a.377.377 0 00-.673 0l-1.33 2.697-2.975.432a.374.374 0 00-.207.64l2.152 2.099-.508 2.964a.374.374 0 00.543.395L62 8.836l2.661 1.4a.374.374 0 00.544-.395l-.509-2.964 2.153-2.099a.375.375 0 00-.208-.64z" fill="#FFD168"/></symbol><symbol fill="none" id="sprite-stars" viewBox="0 0 68 12"><title>stars</title><path d="M52.393 4.148l-2.704-.39-1.208-2.431a.595.595 0 00-1.062 0l-1.208 2.43-2.704.391a.586.586 0 00-.328 1.003l1.956 1.89-.462 2.672a.59.59 0 00.858.618L47.95 9.07l2.419 1.261c.429.224.941-.136.858-.618l-.462-2.671L52.72 5.15a.586.586 0 00-.328-1.003zm-2.581 2.585l.438 2.54-2.3-1.198-2.3 1.199.438-2.54-1.861-1.8 2.572-.37L47.95 2.25l1.151 2.313 2.572.371-1.861 1.8zm16.581-2.585l-2.704-.39-1.208-2.431a.595.595 0 00-1.062 0l-1.208 2.43-2.704.391a.586.586 0 00-.328 1.003l1.956 1.89-.462 2.672a.59.59 0 00.858.618L61.95 9.07l2.419 1.261c.429.224.941-.136.858-.618l-.462-2.671L66.72 5.15a.586.586 0 00-.328-1.003zm-2.581 2.585l.438 2.54-2.3-1.198-2.3 1.199.438-2.54-1.861-1.8 2.572-.37L61.95 2.25l1.151 2.313 2.572.371-1.861 1.8zM38.393 4.148l-2.704-.39-1.208-2.431a.595.595 0 00-1.062 0l-1.208 2.43-2.704.391a.586.586 0 00-.328 1.003l1.956 1.89-.462 2.672a.59.59 0 00.858.618L33.95 9.07l2.419 1.261c.429.224.941-.136.858-.618l-.462-2.671L38.72 5.15a.586.586 0 00-.328-1.003zm-2.581 2.585l.438 2.54-2.3-1.198-2.3 1.199.438-2.54-1.861-1.8 2.572-.37L33.95 2.25l1.151 2.313 2.572.371-1.861 1.8zM24.393 4.148l-2.704-.39-1.208-2.431a.595.595 0 00-1.062 0l-1.208 2.43-2.704.391a.586.586 0 00-.327 1.003l1.955 1.89-.462 2.672a.59.59 0 00.858.618L19.95 9.07l2.419 1.261c.429.224.941-.136.858-.618l-.462-2.671L24.72 5.15a.586.586 0 00-.328-1.003zm-2.581 2.585l.438 2.54-2.3-1.198-2.3 1.199.438-2.54-1.861-1.8 2.572-.37L19.95 2.25l1.151 2.313 2.572.371-1.861 1.8z" fill="#FFD168"/><g clip-path="url(#clip0)"><path d="M10.393 4.148l-2.704-.39-1.208-2.431a.595.595 0 00-1.062 0L4.21 3.757l-2.704.391a.586.586 0 00-.327 1.003l1.955 1.89-.462 2.672a.59.59 0 00.858.618L5.95 9.07l2.419 1.261c.429.224.941-.136.858-.618l-.462-2.671L10.72 5.15a.586.586 0 00-.327-1.003zM7.812 6.733l.438 2.54-2.3-1.198-2.3 1.199.438-2.54-1.861-1.8 2.572-.37L5.95 2.25l1.151 2.313 2.572.371-1.861 1.8z" fill="#FFD168"/></g><defs><clipPath id="clip0"><path fill="#fff" d="M0 0h12v12H0z"/></clipPath></defs></symbol></svg>