<svg width="68" height="12" viewBox="0 0 68 12" fill="none" xmlns="http://www.w3.org/2000/svg">
<path d="M52.393 4.14848L49.6894 3.75747L48.4811 1.32699C48.2646 0.893762 47.6373 0.888254 47.4189 1.32699L46.2106 3.75747L43.507 4.14848C43.0222 4.21823 42.8279 4.81117 43.1795 5.15077L45.1354 7.04156L44.6728 9.71251C44.5896 10.1953 45.1021 10.5569 45.5314 10.3311L47.95 9.07002L50.3686 10.3311C50.7979 10.5551 51.3104 10.1953 51.2272 9.71251L50.7646 7.04156L52.7205 5.15077C53.0721 4.81117 52.8778 4.21823 52.393 4.14848V4.14848ZM49.8116 6.73316L50.2501 9.27378L47.95 8.07506L45.6499 9.27378L46.0884 6.73316L44.2269 4.93416L46.799 4.56335L47.95 2.25035L49.101 4.56335L51.6731 4.93416L49.8116 6.73316V6.73316Z" fill="#FFD168"/>
<path d="M66.393 4.14848L63.6894 3.75747L62.4811 1.32699C62.2646 0.893762 61.6373 0.888254 61.4189 1.32699L60.2106 3.75747L57.507 4.14848C57.0222 4.21823 56.8279 4.81117 57.1795 5.15077L59.1354 7.04156L58.6728 9.71251C58.5896 10.1953 59.1021 10.5569 59.5314 10.3311L61.95 9.07002L64.3686 10.3311C64.7979 10.5551 65.3104 10.1953 65.2272 9.71251L64.7646 7.04156L66.7205 5.15077C67.0721 4.81117 66.8778 4.21823 66.393 4.14848V4.14848ZM63.8116 6.73316L64.2501 9.27378L61.95 8.07506L59.6499 9.27378L60.0884 6.73316L58.2269 4.93416L60.799 4.56335L61.95 2.25035L63.101 4.56335L65.6731 4.93416L63.8116 6.73316V6.73316Z" fill="#FFD168"/>
<path d="M38.393 4.14848L35.6894 3.75747L34.4811 1.32699C34.2646 0.893762 33.6373 0.888254 33.4189 1.32699L32.2106 3.75747L29.507 4.14848C29.0222 4.21823 28.8279 4.81117 29.1795 5.15077L31.1354 7.04156L30.6728 9.71251C30.5896 10.1953 31.1021 10.5569 31.5314 10.3311L33.95 9.07002L36.3686 10.3311C36.7979 10.5551 37.3104 10.1953 37.2272 9.71251L36.7646 7.04156L38.7205 5.15077C39.0721 4.81117 38.8778 4.21823 38.393 4.14848V4.14848ZM35.8116 6.73316L36.2501 9.27378L33.95 8.07506L31.6499 9.27378L32.0884 6.73316L30.2269 4.93416L32.799 4.56335L33.95 2.25035L35.101 4.56335L37.6731 4.93416L35.8116 6.73316V6.73316Z" fill="#FFD168"/>
<path d="M24.393 4.14848L21.6894 3.75747L20.4811 1.32699C20.2646 0.893762 19.6373 0.888254 19.4189 1.32699L18.2106 3.75747L15.507 4.14848C15.0222 4.21823 14.8279 4.81117 15.1795 5.15077L17.1354 7.04156L16.6728 9.71251C16.5896 10.1953 17.1021 10.5569 17.5314 10.3311L19.95 9.07002L22.3686 10.3311C22.7979 10.5551 23.3104 10.1953 23.2272 9.71251L22.7646 7.04156L24.7205 5.15077C25.0721 4.81117 24.8778 4.21823 24.393 4.14848V4.14848ZM21.8116 6.73316L22.2501 9.27378L19.95 8.07506L17.6499 9.27378L18.0884 6.73316L16.2269 4.93416L18.799 4.56335L19.95 2.25035L21.101 4.56335L23.6731 4.93416L21.8116 6.73316V6.73316Z" fill="#FFD168"/>
<g clip-path="url(#clip0)">
<path d="M10.393 4.14848L7.68944 3.75747L6.48108 1.32699C6.26458 0.893762 5.63727 0.888254 5.41892 1.32699L4.21056 3.75747L1.50704 4.14848C1.02221 4.21823 0.827916 4.81117 1.1795 5.15077L3.13544 7.04156L2.67283 9.71251C2.58956 10.1953 3.10214 10.5569 3.53144 10.3311L5.95 9.07002L8.36856 10.3311C8.79786 10.5551 9.31044 10.1953 9.22717 9.71251L8.76456 7.04156L10.7205 5.15077C11.0721 4.81117 10.8778 4.21823 10.393 4.14848V4.14848ZM7.81157 6.73316L8.25013 9.27378L5.95 8.07506L3.64987 9.27378L4.08843 6.73316L2.22687 4.93416L4.79901 4.56335L5.95 2.25035L7.10099 4.56335L9.67313 4.93416L7.81157 6.73316V6.73316Z" fill="#FFD168"/>
</g>
<defs>
<clipPath id="clip0">
<rect width="12" height="12" fill="white"/>
</clipPath>
</defs>
</svg>
