<svg width="68" height="12" viewBox="0 0 68 12" fill="none" xmlns="http://www.w3.org/2000/svg">
<path d="M52.6415 4.13829L49.6662 3.70586L48.3361 1.00938C48.2997 0.935551 48.24 0.875786 48.1662 0.839457C47.981 0.748051 47.756 0.824223 47.6634 1.00938L46.3333 3.70586L43.358 4.13829C43.2759 4.15 43.2009 4.18868 43.1435 4.24727C43.0741 4.31862 43.0358 4.41461 43.0371 4.51416C43.0385 4.6137 43.0792 4.70864 43.1505 4.77813L45.3033 6.87696L44.7947 9.84063C44.7827 9.90957 44.7904 9.98048 44.8167 10.0453C44.843 10.1101 44.887 10.1663 44.9436 10.2074C45.0002 10.2485 45.0672 10.2729 45.137 10.2779C45.2068 10.2829 45.2765 10.2682 45.3384 10.2356L47.9997 8.83633L50.6611 10.2356C50.7337 10.2742 50.8181 10.2871 50.899 10.2731C51.1029 10.2379 51.24 10.0445 51.2048 9.84063L50.6962 6.87696L52.849 4.77813C52.9076 4.72071 52.9462 4.64571 52.958 4.56368C52.9896 4.3586 52.8466 4.16875 52.6415 4.13829V4.13829Z" fill="#FFD168"/>
<path d="M38.6415 4.13829L35.6662 3.70586L34.3361 1.00938C34.2997 0.935551 34.24 0.875786 34.1662 0.839457C33.981 0.748051 33.756 0.824223 33.6634 1.00938L32.3333 3.70586L29.358 4.13829C29.2759 4.15 29.2009 4.18868 29.1435 4.24727C29.0741 4.31862 29.0358 4.41461 29.0371 4.51416C29.0385 4.6137 29.0792 4.70864 29.1505 4.77813L31.3033 6.87696L30.7947 9.84063C30.7827 9.90957 30.7904 9.98048 30.8167 10.0453C30.843 10.1101 30.887 10.1663 30.9436 10.2074C31.0002 10.2485 31.0672 10.2729 31.137 10.2779C31.2068 10.2829 31.2765 10.2682 31.3384 10.2356L33.9997 8.83633L36.6611 10.2356C36.7337 10.2742 36.8181 10.2871 36.899 10.2731C37.1029 10.2379 37.24 10.0445 37.2048 9.84063L36.6962 6.87696L38.849 4.77813C38.9076 4.72071 38.9462 4.64571 38.958 4.56368C38.9896 4.3586 38.8466 4.16875 38.6415 4.13829V4.13829Z" fill="#FFD168"/>
<path d="M24.6415 4.13829L21.6662 3.70586L20.3361 1.00938C20.2997 0.935551 20.24 0.875786 20.1662 0.839457C19.981 0.748051 19.756 0.824223 19.6634 1.00938L18.3333 3.70586L15.358 4.13829C15.2759 4.15 15.2009 4.18868 15.1435 4.24727C15.0741 4.31862 15.0358 4.41461 15.0371 4.51416C15.0385 4.6137 15.0792 4.70864 15.1505 4.77813L17.3033 6.87696L16.7947 9.84063C16.7827 9.90957 16.7904 9.98048 16.8167 10.0453C16.843 10.1101 16.887 10.1663 16.9436 10.2074C17.0002 10.2485 17.0672 10.2729 17.137 10.2779C17.2068 10.2829 17.2765 10.2682 17.3384 10.2356L19.9997 8.83633L22.6611 10.2356C22.7337 10.2742 22.8181 10.2871 22.899 10.2731C23.1029 10.2379 23.24 10.0445 23.2048 9.84063L22.6962 6.87696L24.849 4.77813C24.9076 4.72071 24.9462 4.64571 24.958 4.56368C24.9896 4.3586 24.8466 4.16875 24.6415 4.13829V4.13829Z" fill="#FFD168"/>
<path d="M10.6415 4.13829L7.66615 3.70586L6.33608 1.00938C6.29975 0.935551 6.23998 0.875786 6.16615 0.839457C5.981 0.748051 5.756 0.824223 5.66342 1.00938L4.33334 3.70586L1.35795 4.13829C1.27592 4.15 1.20092 4.18868 1.1435 4.24727C1.07408 4.31862 1.03582 4.41461 1.03714 4.51416C1.03846 4.6137 1.07924 4.70864 1.15053 4.77813L3.30326 6.87696L2.79467 9.84063C2.78274 9.90957 2.79037 9.98048 2.81669 10.0453C2.84301 10.1101 2.88697 10.1663 2.94358 10.2074C3.00019 10.2485 3.06719 10.2729 3.13697 10.2779C3.20676 10.2829 3.27655 10.2682 3.33842 10.2356L5.99975 8.83633L8.66108 10.2356C8.73373 10.2742 8.81811 10.2871 8.89897 10.2731C9.10287 10.2379 9.23998 10.0445 9.20483 9.84063L8.69623 6.87696L10.849 4.77813C10.9076 4.72071 10.9462 4.64571 10.958 4.56368C10.9896 4.3586 10.8466 4.16875 10.6415 4.13829V4.13829Z" fill="#FFD168"/>
<path d="M66.6415 4.13829L63.6662 3.70586L62.3361 1.00938C62.2997 0.935551 62.24 0.875786 62.1662 0.839457C61.981 0.748051 61.756 0.824223 61.6634 1.00938L60.3333 3.70586L57.358 4.13829C57.2759 4.15 57.2009 4.18868 57.1435 4.24727C57.0741 4.31862 57.0358 4.41461 57.0371 4.51416C57.0385 4.6137 57.0792 4.70864 57.1505 4.77813L59.3033 6.87696L58.7947 9.84063C58.7827 9.90957 58.7904 9.98048 58.8167 10.0453C58.843 10.1101 58.887 10.1663 58.9436 10.2074C59.0002 10.2485 59.0672 10.2729 59.137 10.2779C59.2068 10.2829 59.2765 10.2682 59.3384 10.2356L61.9997 8.83633L64.6611 10.2356C64.7337 10.2742 64.8181 10.2871 64.899 10.2731C65.1029 10.2379 65.24 10.0445 65.2048 9.84063L64.6962 6.87696L66.849 4.77813C66.9076 4.72071 66.9462 4.64571 66.958 4.56368C66.9896 4.3586 66.8466 4.16875 66.6415 4.13829V4.13829Z" fill="#FFD168"/>
</svg>
